<svg width="112" height="112" viewBox="0 0 112 112" fill="none" xmlns="http://www.w3.org/2000/svg">
    <path
        d="M13.851 97.9738C5.42931 97.476 0.158214 90.6124 0.0823901 81.7007C0.0327121 76.0545 0.0823901 70.4082 0.0823901 64.762V22.4167C0.0823901 18.8128 -0.301961 14.7395 0.589629 11.2266C2.41464 4.02447 8.38646 0.295391 14.9178 0.212902C35.3303 -0.0459426 55.7584 0.212902 76.1708 0.212902C81.3922 0.212902 81.3818 9.02501 76.1708 9.02501H15.7153C11.8587 9.02501 8.51719 10.4359 8.18252 15.3283C7.97597 18.3491 8.18252 21.478 8.18252 24.5045V38.9515C8.18252 40.2002 9.11333 41.2128 10.2612 41.2128H43.582C48.8035 41.2128 48.793 50.0249 43.582 50.0249H10.2612C9.11333 50.0249 8.18252 51.0375 8.18252 52.2863V79.4792C8.18252 83.8966 8.51458 88.846 13.8537 89.1617C19.0463 89.4689 19.062 98.281 13.8537 97.9738H13.851ZM111.918 67.9023V18.3832C111.918 16.4718 111.991 14.5575 111.717 12.6602C110.65 5.2874 104.927 0.409169 98.1494 0.00810193C92.9411 -0.301943 92.9568 8.38785 98.1494 8.69505C105.708 9.14447 103.821 20.4682 103.821 25.9324V57.5769C103.821 65.5556 103.902 73.54 103.821 81.5187C103.779 85.4923 102.341 88.9114 98.1494 89.3153C96.5545 89.4689 94.8942 89.0963 93.3071 89.3153C90.8284 89.6595 89.9525 91.2125 88.7995 93.2719C87.8216 95.0156 83.9912 104.047 82.2158 102.872C80.966 102.044 79.6796 98.1558 78.9632 96.8275C78.0063 95.0469 77.0493 93.2691 76.0924 91.4885C75.3681 90.143 74.032 89.3153 72.5835 89.3153H35.8323C30.6213 89.3153 30.6108 98.0022 35.8323 98.0022H70.1729C73.0437 103.956 76.4427 112.253 83.2016 111.994C89.3721 111.758 92.8469 103.671 95.6812 98.0079C99.1194 97.9937 102.443 97.7633 105.512 95.6556C109.63 92.8253 111.746 88.0524 111.923 82.9124C112.096 77.9233 111.923 72.8914 111.923 67.8994L111.918 67.9023ZM75.2583 62.7083C75.2688 65.3963 76.699 67.7117 78.7724 68.8324L75.491 75.0134C74.8975 76.1341 75.64 77.5336 76.8271 77.5336H86.815C88.0046 77.5336 88.7472 76.1341 88.1511 75.0134L84.7547 68.6134C86.6293 67.4216 87.8922 65.2143 87.8922 62.6799C87.8922 58.8143 84.956 55.6911 81.3792 55.8105C78.0089 55.9215 75.2426 59.0418 75.2557 62.7083H75.2583Z"
        fill="url(#paint0_linear_603_222)" />
    <defs>
        <linearGradient id="paint0_linear_603_222" x1="-0.00127811" y1="56.0011" x2="111.997"
            y2="56.0011" gradientUnits="userSpaceOnUse">
            <stop stop-color="#F71C43" />
            <stop offset="1" stop-color="#4800E1" />
        </linearGradient>
    </defs>
</svg>