<svg width="270" height="70" viewBox="0 0 270 70" fill="none" xmlns="http://www.w3.org/2000/svg">
    <g>
        <path
            d="M43.3091 6.28781C44.2541 6.28781 44.7266 6.78119 44.7266 7.7717V11.7337C44.7266 12.7242 44.2541 13.2195 43.3091 13.2195H18.0803C17.1336 13.2195 16.6611 13.7147 16.6611 14.7052V26.3428C16.6611 27.3351 17.1336 27.8285 18.0803 27.8285H40.0481C40.9931 27.8285 41.4656 28.3238 41.4656 29.3143V33.2763C41.4656 34.2668 40.9931 34.7621 40.0481 34.7621H18.0322C17.0872 34.7621 16.6148 35.2573 16.6148 36.2478V54.3236C16.6148 55.3141 16.1423 55.8094 15.1973 55.8094H11.4174C10.4725 55.8094 10 55.3141 10 54.3236V7.7717C10 6.78119 10.4725 6.28781 11.4174 6.28781H43.3091ZM109.434 7.7717C109.434 6.78119 109.906 6.28594 110.851 6.28594H114.631C115.576 6.28594 116.048 6.78119 116.048 7.7717V54.3236C116.048 55.3141 115.576 55.8094 114.631 55.8094H110.851C109.906 55.8094 109.434 55.3141 109.434 54.3236V7.7717ZM246.742 30.2001L259.906 7.39045C260.166 6.93818 259.856 6.36069 259.351 6.36069H254.438C254.211 6.36069 254.001 6.48591 253.883 6.68775L244.505 22.8835C244.13 23.5301 243.233 23.5282 242.861 22.8797L233.577 6.68962C233.459 6.48591 233.249 6.36069 233.022 6.36069H227.556C227.051 6.36069 226.741 6.93818 227.001 7.39045L240.217 30.3066L239.971 55.1646C239.967 55.5421 240.258 55.8505 240.616 55.8505H246.234C246.594 55.8505 246.883 55.544 246.881 55.1684L246.742 30.2001ZM206.357 7.48015C206.009 6.58496 205.346 6.1383 204.367 6.1383H200.525C199.544 6.1383 198.881 6.58496 198.533 7.48015L178.379 54.503C178.031 55.3982 178.314 55.8449 179.233 55.8449H183.027C184.006 55.8449 184.669 55.3982 185.018 54.503L201.899 14.4399C202.279 13.511 202.659 13.511 203.039 14.4399L219.873 54.503C220.221 55.3982 220.884 55.8449 221.865 55.8449H225.705C226.622 55.8449 226.907 55.3982 226.559 54.503L206.357 7.48015ZM164.627 13.2699C162.45 11.0217 159.909 9.24811 157.001 7.94924C154.095 6.65037 151.003 6 147.731 6H131.433C130.481 6 130.003 6.50086 130.003 7.49884V22.3863C130.003 23.3843 130.481 23.8833 131.433 23.8833H135.245C136.199 23.8833 136.675 23.3843 136.675 22.3863V14.4922C136.675 13.4942 137.153 12.9933 138.105 12.9933H148.304C150.623 12.9933 152.8 13.468 154.833 14.4193C156.865 15.3668 158.638 16.6582 160.146 18.2898C161.656 19.9213 162.84 21.8275 163.698 24.0085C164.555 26.1895 164.983 28.5144 164.983 30.9776C164.983 33.4744 164.5 35.7899 163.53 37.9205C162.56 40.0529 161.268 41.9105 159.647 43.4916C158.026 45.0727 156.15 46.3379 154.023 47.2873C151.895 48.2367 149.669 48.7955 147.352 48.9618H131.433C130.481 48.9618 130.003 49.4608 130.003 50.4588V54.4563C130.003 55.4543 130.481 55.9551 131.433 55.9551H147.97C150.575 55.9551 153.118 55.5047 155.596 54.6058C157.978 53.7405 160.162 52.5164 162.148 50.9335C164.135 49.3524 165.827 47.5284 167.224 45.4651C168.622 43.4 169.71 41.1349 170.489 38.6699C171.266 36.2067 171.655 33.6426 171.655 30.9776C171.655 27.5145 171.027 24.259 169.774 21.2108C168.519 18.1645 166.802 15.5163 164.627 13.2699ZM91.9196 30.2468C93.0607 28.9667 93.9557 27.4959 94.6065 25.8325C95.2573 24.1711 95.5818 22.4106 95.5818 20.5474C95.5818 18.7215 95.2501 16.9423 94.5833 15.2136C93.9165 13.4849 93.0125 11.9468 91.8714 10.6012C90.7303 9.25372 89.3735 8.17538 87.8045 7.36054C86.2355 6.54571 84.5453 6.1383 82.7391 6.1383H59.049C58.0969 6.1383 57.6227 6.63729 57.6227 7.6334V11.6235C57.6227 12.6196 58.0969 13.1186 59.049 13.1186H82.5947C83.5147 13.1858 84.3563 13.4269 85.1158 13.8418C85.8771 14.2586 86.5279 14.7968 87.0664 15.4621C87.6066 16.1275 88.0416 16.8918 88.3751 17.7553C88.7085 18.6205 88.9064 19.5344 88.9706 20.4988C88.8119 22.4929 88.1772 24.1805 87.0664 25.5597C85.9574 26.9389 84.4508 27.6958 82.5484 27.8285H59.5251C59.017 27.8285 58.573 27.978 58.1932 28.277C57.8117 28.5761 57.6227 28.991 57.6227 29.5236V54.503C57.6227 55.501 58.0969 56 59.049 56H62.8539C63.806 56 64.282 55.501 64.282 54.503V36.3039C64.282 35.3078 64.7581 34.8088 65.7084 34.8088H75.7945L87.6387 54.6525C87.9864 55.5515 88.6532 56 89.6356 56H93.9646C94.8846 56 95.1699 55.5515 94.8204 54.6525L82.9763 34.8088C84.72 34.6761 86.3603 34.2014 87.899 33.3866C89.4377 32.5736 90.7767 31.5252 91.9196 30.2468Z"
            fill="#C2C2C2" />
    </g>
</svg>
    